<svg width="1536" height="1056" xmlns="http://www.w3.org/2000/svg" xmlns:xlink="http://www.w3.org/1999/xlink" overflow="hidden"><g><rect x="0" y="0" width="1536" height="1056" fill="#FFFFFF"/><path d="M81 110.475C81 78.7326 106.733 53 138.475 53L1397.52 53C1429.27 53 1455 78.7326 1455 110.475L1455 747.525C1455 779.267 1429.27 805 1397.52 805L138.475 805C106.733 805 81 779.267 81 747.525Z" stroke="#156082" stroke-width="8" stroke-miterlimit="8" stroke-dasharray="64 24" fill="#156082" fill-rule="evenodd" fill-opacity="0.25098"/><path d="M644 250.667C644 238.148 654.148 228 666.667 228L879.333 228C891.852 228 902 238.148 902 250.667L902 341.333C902 353.852 891.852 364 879.333 364L666.667 364C654.148 364 644 353.852 644 341.333Z" stroke="#042433" stroke-width="2" stroke-miterlimit="8" fill="#ECECFF" fill-rule="evenodd"/><text font-family="Aptos,Aptos_MSFontService,sans-serif" font-weight="400" font-size="24" transform="translate(676.911 260)">p</text><text font-family="Aptos,Aptos_MSFontService,sans-serif" font-weight="400" font-size="24" transform="translate(690.411 260)">ipeline</text><text font-family="Aptos,Aptos_MSFontService,sans-serif" font-weight="400" font-size="24" transform="translate(759.911 260)">_runner.py</text><text font-family="Aptos,Aptos_MSFontService,sans-serif" font-weight="400" font-size="24" transform="translate(659.911 289)">-</text><text font-family="Aptos,Aptos_MSFontService,sans-serif" font-weight="400" font-size="24" transform="translate(668.078 289)">&gt;Command</text><text font-family="Aptos,Aptos_MSFontService,sans-serif" font-weight="400" font-size="24" transform="translate(791.245 289)">-</text><text font-family="Aptos,Aptos_MSFontService,sans-serif" font-weight="400" font-size="24" transform="translate(799.411 289)">line</text><text font-family="Aptos,Aptos_MSFontService,sans-serif" font-weight="400" font-size="24" transform="translate(659.911 318)">entry point and mode</text><text font-family="Aptos,Aptos_MSFontService,sans-serif" font-weight="400" font-size="24" transform="translate(659.911 347)">selection</text><path d="M1138 90.8335C1138 84.298 1143.3 79 1149.83 79L1385.17 79C1391.7 79 1397 84.298 1397 90.8335L1397 138.167C1397 144.702 1391.7 150 1385.17 150L1149.83 150C1143.3 150 1138 144.702 1138 138.167Z" stroke="#042433" stroke-width="2" stroke-miterlimit="8" fill="#ECECFF" fill-rule="evenodd"/><text font-family="Aptos,Aptos_MSFontService,sans-serif" font-weight="400" font-size="24" transform="translate(1182.85 108)">Optional trusted</text><text font-family="Aptos,Aptos_MSFontService,sans-serif" font-weight="400" font-size="24" transform="translate(1157.41 137)">SFINCS</text><text font-family="Aptos,Aptos_MSFontService,sans-serif" font-weight="400" font-size="24" transform="translate(1236.91 137)">-</text><text font-family="Aptos,Aptos_MSFontService,sans-serif" font-weight="400" font-size="24" transform="translate(1245.07 137)">native inputs</text><path d="M806 90.8335C806 84.298 811.298 79 817.833 79L1052.17 79C1058.7 79 1064 84.298 1064 90.8335L1064 138.167C1064 144.702 1058.7 150 1052.17 150L817.833 150C811.298 150 806 144.702 806 138.167Z" stroke="#042433" stroke-width="2" stroke-miterlimit="8" fill="#ECECFF" fill-rule="evenodd"/><text font-family="Aptos,Aptos_MSFontService,sans-serif" font-weight="400" font-size="24" transform="translate(833.801 122)">Event data catalogs</text><path d="M473 90.8335C473 84.298 478.298 79 484.833 79L720.167 79C726.702 79 732 84.298 732 90.8335L732 138.167C732 144.702 726.702 150 720.167 150L484.833 150C478.298 150 473 144.702 473 138.167Z" stroke="#042433" stroke-width="2" stroke-miterlimit="8" fill="#ECECFF" fill-rule="evenodd"/><text font-family="Aptos,Aptos_MSFontService,sans-serif" font-weight="400" font-size="24" transform="translate(498.082 122)">Static data Catalogs</text><path d="M144 90.8335C144 84.298 149.298 79 155.833 79L391.167 79C397.702 79 403 84.298 403 90.8335L403 138.167C403 144.702 397.702 150 391.167 150L155.833 150C149.298 150 144 144.702 144 138.167Z" stroke="#042433" stroke-width="2" stroke-miterlimit="8" fill="#ECECFF" fill-rule="evenodd"/><text font-family="Aptos,Aptos_MSFontService,sans-serif" font-weight="400" font-size="24" transform="translate(225.942 108)">JSON run</text><text font-family="Aptos,Aptos_MSFontService,sans-serif" font-weight="400" font-size="24" transform="translate(205.322 137)">configuration</text><path d="M0.0164188-2.66662 34.2382-2.45591 68.2078-1.84143 101.642-0.850202 134.273 0.490906 165.83 2.15484 181.13 3.09992 196.059 4.11547 210.588 5.1984 224.682 6.34539 238.31 7.55311 251.437 8.81826 264.031 10.1375 276.058 11.5077 287.486 12.9255 298.282 14.3878 308.414 15.8915 317.849 17.4337 326.557 19.0117 334.505 20.6231 341.666 22.2665 348.139 23.9751 355.213 26.9563 353.142 31.8711 346.241 28.9629 346.596 29.0838 340.347 27.4343 340.431 27.455 333.346 25.8289 333.412 25.8433 325.524 24.2442 325.578 24.2546 316.921 22.6857 316.966 22.6935 307.573 21.1582 307.612 21.1642 297.516 19.6659 297.55 19.6706 286.785 18.2126 286.815 18.2164 275.415 16.8021 275.441 16.8053 263.439 15.438 263.463 15.4406 250.892 14.1237 250.914 14.1259 237.808 12.8628 237.829 12.8647 224.221 11.6588 224.24 11.6604 210.164 10.5149 210.182 10.5163 195.672 9.43469 195.689 9.43592 180.777 8.42151 180.793 8.42259 165.513 7.47876 165.537 7.48014 134.007 5.81765 134.038 5.81911 101.438 4.47926 101.468 4.48034 68.0651 3.49002 68.0959 3.49075 34.1576 2.87684 34.1894 2.87723-0.0164188 2.66662ZM356.323 21.2583 365.338 36.7088 347.568 34.6511Z" transform="matrix(1.83697e-16 1 1 -1.83697e-16 603.5 150.5)"/><path d="M938.504 150.513 938.341 184.731 937.867 218.693 937.102 252.12 936.067 284.744 934.783 316.295 934.053 331.591 933.27 346.516 932.434 361.041 931.549 375.131 930.617 388.754 929.641 401.876 928.622 414.465 927.565 426.487 926.471 437.909 925.343 448.698 924.183 458.822 922.994 468.248 921.778 476.945 920.536 484.881 919.27 492.026 917.956 498.471 915.857 504.699 910.803 502.996 912.849 496.925 912.763 497.244 914.037 490.995 914.024 491.062 915.279 483.977 915.271 484.03 916.505 476.142 916.499 476.185 917.71 467.527 917.705 467.563 918.89 458.17 918.887 458.2 920.043 448.104 920.04 448.13 921.166 437.366 921.164 437.389 922.255 425.989 922.253 426.009 923.309 414.007 923.307 414.026 924.324 401.455 924.323 401.472 925.298 388.366 925.296 388.382 926.227 374.775 926.226 374.789 927.111 360.713 927.11 360.727 927.945 346.217 927.944 346.23 928.727 331.318 928.726 331.331 929.455 316.051 929.454 316.069 930.737 284.539 930.737 284.563 931.771 251.963 931.77 251.986 932.535 218.583 932.534 218.607 933.008 184.669 933.008 184.693 933.171 150.487ZM921.691 504.947 907.5 515.838 907.302 497.951Z"/><path d="M1270.97 150.581 1270.44 167.781 1268.88 185.023 1266.32 202.192 1262.8 219.254 1258.34 236.175 1252.98 252.923 1246.77 269.463 1239.72 285.764 1231.87 301.79 1223.27 317.511 1213.93 332.891 1203.89 347.9 1193.2 362.502 1181.87 376.666 1169.94 390.358 1157.45 403.544 1144.43 416.193 1130.9 428.269 1116.92 439.741 1102.49 450.574 1087.67 460.736 1072.48 470.192 1056.95 478.909 1041.12 486.854 1025.02 493.992 1008.68 500.289 992.138 505.712 975.423 510.226 958.568 513.797 941.606 516.39 924.572 517.971 920.91 518.086 920.743 512.755 924.324 512.643 924.161 512.653 941.035 511.087 940.878 511.106 957.686 508.536 957.537 508.564 974.246 505.024 974.103 505.058 990.68 500.582 990.544 500.622 1006.96 495.242 1006.83 495.288 1023.04 489.039 1022.92 489.089 1038.9 482.004 1038.79 482.059 1054.5 474.171 1054.39 474.229 1069.82 465.571 1069.71 465.633 1084.8 456.239 1084.7 456.304 1099.43 446.208 1099.34 446.276 1113.67 435.511 1113.58 435.581 1127.48 424.181 1127.39 424.254 1140.83 412.252 1140.75 412.328 1153.69 399.757 1153.62 399.836 1166.03 386.73 1165.96 386.813 1177.81 373.205 1177.74 373.291 1189 359.215 1188.93 359.305 1199.56 344.794 1199.49 344.888 1209.46 329.976 1209.4 330.074 1218.68 314.794 1218.62 314.897 1227.17 299.282 1227.11 299.391 1234.9 283.475 1234.85 283.589 1241.85 267.406 1241.8 267.526 1247.97 251.109 1247.92 251.235 1253.24 234.617 1253.2 234.75 1257.62 217.965 1257.59 218.105 1261.08 201.186 1261.06 201.332 1263.59 184.313 1263.58 184.465 1265.12 167.379 1265.11 167.538 1265.64 150.419ZM923.743 523.333 907.5 515.838 923.242 507.341Z"/><path d="M0.2087-2.65849 7.2418-2.10636 14.4356-0.432664 21.5521 2.29434 28.575 6.02322 35.4951 10.7066 42.3063 16.3021 49.0031 22.771 55.5792 30.0775 62.027 38.1873 68.3378 47.0668 74.5018 56.683 80.5086 67.0029 86.3467 77.9937 92.0046 89.6224 97.4701 101.856 102.731 114.661 107.774 128.005 112.588 141.854 117.158 156.175 121.473 170.935 125.518 186.099 129.285 201.65 135.91 233.688 141.251 266.824 145.197 300.761 146.616 317.972 147.645 335.273 148.273 352.642 148.322 356.682 142.989 356.747 142.94 352.739 142.942 352.803 142.316 335.496 142.319 335.558 141.294 318.32 141.298 318.38 139.885 301.243 139.894 301.332 135.96 267.499 135.976 267.615 130.654 234.594 130.675 234.71 124.071 202.774 124.091 202.862 120.342 187.385 120.357 187.444 116.328 172.34 116.345 172.401 112.048 157.703 112.067 157.765 107.517 143.508 107.539 143.573 102.748 129.79 102.773 129.857 97.7554 116.582 97.7832 116.653 92.5522 103.92 92.5841 103.995 87.1529 91.8377 87.1897 91.9166 81.5716 80.3696 81.6145 80.4539 75.8228 69.5506 75.8731 69.6411 69.9212 59.4153 69.9809 59.513 63.8822 49.9987 63.9536 50.1044 57.7213 41.3355 57.8076 41.4502 51.4552 33.4604 51.5605 33.5848 45.1013 26.4082 45.2307 26.5422 38.678 20.2125 38.838 20.3551 32.2053 14.9062 32.4034 15.0541 25.7039 10.52 25.948 10.6669 19.1951 7.08135 19.4914 7.21619 12.6985 4.61318 13.0484 4.72037 6.22872 3.13371 6.6243 3.1949-0.2087 2.65849ZM153.622 353.95 145.818 370.047 137.623 354.145Z" fill="#FF0000" transform="matrix(1.83697e-16 1 1 -1.83697e-16 274.5 150.5)"/><text font-family="Aptos,Aptos_MSFontService,sans-serif" font-weight="400" font-size="128" transform="translate(1344.74 744)">2</text><path d="M639 469.667C639 457.148 649.148 447 661.667 447L884.333 447C896.852 447 907 457.148 907 469.667L907 560.333C907 572.852 896.852 583 884.333 583L661.667 583C649.148 583 639 572.852 639 560.333Z" stroke="#042433" stroke-width="2" stroke-miterlimit="8" fill="#ECECFF" fill-rule="evenodd"/><text font-family="Aptos,Aptos_MSFontService,sans-serif" font-weight="400" font-size="24" transform="translate(676.917 480)">r</text><text font-family="Aptos,Aptos_MSFontService,sans-serif" font-weight="400" font-size="24" transform="translate(684.917 480)">unner</text><text font-family="Aptos,Aptos_MSFontService,sans-serif" font-weight="400" font-size="24" transform="translate(745.251 480)">_core</text><text font-family="Aptos,Aptos_MSFontService,sans-serif" font-weight="400" font-size="24" transform="translate(801.697 480)">.</text><text font-family="Aptos,Aptos_MSFontService,sans-serif" font-weight="400" font-size="24" transform="translate(808.531 480)">py</text><text font-family="Aptos,Aptos_MSFontService,sans-serif" font-weight="400" font-size="24" transform="translate(655.504 509)">-</text><text font-family="Aptos,Aptos_MSFontService,sans-serif" font-weight="400" font-size="24" transform="translate(663.671 509)">&gt;</text><text font-family="Aptos,Aptos_MSFontService,sans-serif" font-weight="400" font-size="24" transform="translate(676.504 509)">Normalize, validate,</text><text font-family="Aptos,Aptos_MSFontService,sans-serif" font-weight="400" font-size="24" transform="translate(655.504 538)">resolve paths, and</text><text font-family="Aptos,Aptos_MSFontService,sans-serif" font-weight="400" font-size="24" transform="translate(655.504 567)">create run scaffold</text><path d="M1102 517.834C1102 505.223 1112.22 495 1124.83 495L1346.17 495C1358.78 495 1369 505.223 1369 517.834L1369 609.166C1369 621.777 1358.78 632 1346.17 632L1124.83 632C1112.22 632 1102 621.777 1102 609.166Z" stroke="#042433" stroke-width="2" stroke-miterlimit="8" fill="#ECECFF" fill-rule="evenodd"/><text font-family="Aptos,Aptos_MSFontService,sans-serif" font-weight="400" font-size="24" transform="translate(1139.3 528)">runner_core.py</text><text font-family="Aptos,Aptos_MSFontService,sans-serif" font-weight="400" font-size="24" transform="translate(1117.89 557)">-</text><text font-family="Aptos,Aptos_MSFontService,sans-serif" font-weight="400" font-size="24" transform="translate(1126.05 557)">&gt;Normalize, validate,</text><text font-family="Aptos,Aptos_MSFontService,sans-serif" font-weight="400" font-size="24" transform="translate(1117.89 586)">resolve paths, and</text><text font-family="Aptos,Aptos_MSFontService,sans-serif" font-weight="400" font-size="24" transform="translate(1117.89 615)">create run scaffold</text><path d="M1102.39 566.324 1084.13 565.781 1066.38 564.241 1057.88 563.138 1049.74 561.841 1042.03 560.364 1034.8 558.722 1028.14 556.932 1022.09 555.006 1016.73 552.954 1012.1 550.775 1008.25 548.448 1005.21 545.905 1003.08 542.982 1002.39 540.221 1001.83 537.967 1002.27 538.895 1000.64 536.658 1001.08 537.132 998.451 534.931 998.784 535.169 995.226 533.02 995.469 533.15 991.054 531.072 991.237 531.15 986.037 529.16 986.18 529.21 980.266 527.326 980.384 527.361 973.827 525.6 973.928 525.625 966.8 524.005 966.89 524.024 959.262 522.563 959.344 522.578 951.287 521.293 951.365 521.304 942.951 520.214 943.064 520.226 925.452 518.698 925.604 518.706 920.748 518.562 920.907 513.231 925.838 513.378 943.581 514.918 952.089 516.02 960.224 517.317 967.938 518.795 975.16 520.436 981.827 522.226 987.872 524.152 993.236 526.204 997.865 528.383 1001.72 530.71 1004.76 533.253 1006.89 536.176 1007.57 538.937 1008.13 541.191 1007.7 540.263 1009.33 542.5 1008.88 542.026 1011.51 544.227 1011.18 543.989 1014.74 546.138 1014.5 546.008 1018.91 548.086 1018.73 548.008 1023.93 549.998 1023.78 549.948 1029.7 551.832 1029.58 551.797 1036.14 553.558 1036.04 553.533 1043.16 555.153 1043.07 555.134 1050.7 556.595 1050.62 556.58 1058.68 557.865 1058.6 557.854 1067.01 558.944 1066.9 558.932 1084.51 560.461 1084.36 560.452 1102.54 560.993ZM923.255 523.972 907.5 515.5 923.731 507.979Z"/><path d="M776.167 364.5 776.167 372.257 776.167 379.77 776.167 386.795 776.167 393.09 776.167 398.41 776.167 402.512 776.167 404.03 776.167 405.152 776.167 405.847 776.167 406.086 776.167 406.324 776.167 407.02 776.167 408.141 776.167 409.659 776.167 413.761 776.167 419.081 776.167 425.376 776.167 434.338 770.833 434.338 770.833 425.376 770.833 419.081 770.833 413.761 770.833 409.659 770.833 408.141 770.833 407.02 770.833 406.324 770.833 406.085 770.833 405.847 770.833 405.151 770.833 404.03 770.833 402.512 770.833 398.41 770.833 393.09 770.833 386.795 770.833 379.77 770.833 372.257 770.833 364.5ZM781.5 431.671 773.5 447.671 765.5 431.671Z" fill="#FF0000"/><path d="M639 665.667C639 653.148 649.148 643 661.667 643L884.333 643C896.852 643 907 653.148 907 665.667L907 756.333C907 768.852 896.852 779 884.333 779L661.667 779C649.148 779 639 768.852 639 756.333Z" stroke="#042433" stroke-width="2" stroke-miterlimit="8" fill="#ECECFF" fill-rule="evenodd"/><text font-family="Aptos,Aptos_MSFontService,sans-serif" font-weight="400" font-size="24" transform="translate(676.917 675)">s</text><text font-family="Aptos,Aptos_MSFontService,sans-serif" font-weight="400" font-size="24" transform="translate(688.584 675)">lurm_tools</text><text font-family="Aptos,Aptos_MSFontService,sans-serif" font-weight="400" font-size="24" transform="translate(799.137 675)">.</text><text font-family="Aptos,Aptos_MSFontService,sans-serif" font-weight="400" font-size="24" transform="translate(805.971 675)">py</text><text font-family="Aptos,Aptos_MSFontService,sans-serif" font-weight="400" font-size="24" transform="translate(655.504 704)">-</text><text font-family="Aptos,Aptos_MSFontService,sans-serif" font-weight="400" font-size="24" transform="translate(663.67 704)">&gt;</text><text font-family="Aptos,Aptos_MSFontService,sans-serif" font-weight="400" font-size="24" transform="translate(676.504 704)">Write</text><text font-family="Aptos,Aptos_MSFontService,sans-serif" font-weight="400" font-size="24" transform="translate(736.577 704)">Slurm</text><text font-family="Aptos,Aptos_MSFontService,sans-serif" font-weight="400" font-size="24" transform="translate(802.911 704)">scripts</text><text font-family="Aptos,Aptos_MSFontService,sans-serif" font-weight="400" font-size="24" transform="translate(655.504 733)">and</text><text font-family="Aptos,Aptos_MSFontService,sans-serif" font-weight="400" font-size="24" transform="translate(699.837 733)">submit</text><text font-family="Aptos,Aptos_MSFontService,sans-serif" font-weight="400" font-size="24" transform="translate(655.504 762)">dependencie</text><text font-family="Aptos,Aptos_MSFontService,sans-serif" font-weight="400" font-size="24" transform="translate(791.337 762)">s</text><path d="M251 591.667C251 579.148 261.148 569 273.667 569L496.333 569C508.852 569 519 579.148 519 591.667L519 682.333C519 694.852 508.852 705 496.333 705L273.667 705C261.148 705 251 694.852 251 682.333Z" stroke="#042433" stroke-width="2" stroke-miterlimit="8" fill="#ECECFF" fill-rule="evenodd"/><text font-family="Aptos,Aptos_MSFontService,sans-serif" font-weight="400" font-size="24" transform="translate(288.852 616)">run_config.json</text><text font-family="Aptos,Aptos_MSFontService,sans-serif" font-weight="400" font-size="24" transform="translate(267.439 645)">-</text><text font-family="Aptos,Aptos_MSFontService,sans-serif" font-weight="400" font-size="24" transform="translate(275.605 645)">&gt;</text><text font-family="Aptos,Aptos_MSFontService,sans-serif" font-weight="400" font-size="24" transform="translate(288.439 645)">Run configuration</text><text font-family="Aptos,Aptos_MSFontService,sans-serif" font-weight="400" font-size="24" transform="translate(267.439 674)">written to run director</text><path d="M0.164938-2.66156 5.97035-2.3018 11.8736-1.22704 17.6603 0.499675 23.2872 2.82724 28.7127 5.70645 33.8957 9.0899 38.7953 12.9317 43.37 17.1874 47.5776 21.8133 51.3754 26.7668 54.7192 32.0056 57.5641 37.4882 59.8633 43.1728 61.5684 49.0172 62.6295 54.9778 62.9849 60.8437 63.331 66.5555 63.2946 66.2494 64.3035 71.9165 64.238 71.637 65.8654 77.2147 65.7775 76.9617 67.9793 82.4054 67.8742 82.1771 70.6061 87.442 70.4869 87.2355 73.7048 92.277 73.5732 92.0893 77.233 96.8627 77.0894 96.6909 81.1468 101.152 80.9904 100.993 85.4012 105.097 85.2304 104.951 89.9505 108.652 89.7627 108.517 94.7479 111.772 94.5402 111.649 99.7463 114.412 99.5156 114.303 104.898 116.53 104.42 116.383 108.047 117.134 106.966 122.356 103.092 121.554 97.359 119.183 91.9336 116.304 86.7505 112.92 81.8509 109.078 77.2763 104.823 73.0686 100.197 69.2709 95.2432 65.9271 90.0043 63.0822 84.5218 60.783 78.8372 59.0779 72.9927 58.0168 67.0321 57.6614 61.1663 57.3153 55.4545 57.3517 55.7606 56.3429 50.0935 56.4083 50.373 54.7809 44.7953 54.8688 45.0483 52.667 39.6046 52.7722 39.8329 50.0402 34.568 50.1594 34.7745 46.9415 29.7329 47.073 29.9207 43.4133 25.1473 43.5569 25.3191 39.4995 20.8584 39.6559 21.0165 35.245 16.9133 35.4159 17.0593 30.6958 13.3582 30.8835 13.4927 25.8983 10.2384 26.106 10.3609 20.8999 7.59814 21.1306 7.70678 15.7478 5.48016 16.0046 5.57132 10.4892 3.92556 10.774 3.99377 5.17029 2.97354 5.483 3.01156-0.164938 2.66156ZM106.238 111.408 120.646 122.01 103.52 127.176Z" transform="matrix(-1 1.22465e-16 1.22465e-16 1 640.146 515.5)"/><path d="M776.167 583.5 776.167 594.405 776.167 599.422 776.167 603.917 776.167 607.717 776.167 610.646 776.167 612.531 776.167 613.198 776.167 613.865 776.167 615.75 776.167 618.679 776.167 622.479 776.167 629.562 770.833 629.562 770.833 622.479 770.833 618.679 770.833 615.75 770.833 613.865 770.833 613.198 770.833 612.531 770.833 610.646 770.833 607.717 770.833 603.917 770.833 599.422 770.833 594.405 770.833 583.5ZM781.5 626.896 773.5 642.896 765.5 626.896Z" fill="#FF0000"/><path d="M86 879.667C86 866.044 97.0438 855 110.667 855L1435.33 855C1448.96 855 1460 866.044 1460 879.667L1460 978.333C1460 991.956 1448.96 1003 1435.33 1003L110.667 1003C97.0438 1003 86 991.956 86 978.333Z" stroke="#E97132" stroke-width="8" stroke-miterlimit="8" stroke-dasharray="64 24" fill="#E97132" fill-rule="evenodd" fill-opacity="0.25098"/><text font-family="Aptos,Aptos_MSFontService,sans-serif" font-weight="400" font-size="128" transform="translate(741.441 967)">3</text><path d="M0.213992-2.65807 3.91262-2.3603 7.78162-1.43717 11.5834 0.0568383 15.3085 2.08517 18.9549 4.61592 22.5237 7.62254 26.0166 11.0827 29.4341 14.9767 32.7754 19.2865 36.0386 23.995 39.2203 29.0854 42.3284 34.5615 48.2336 46.4773 53.7471 59.6762 58.809 73.9973 63.3691 89.3033 67.3754 105.456 70.7749 122.315 73.514 139.743 75.5384 157.599 76.7934 175.742 77.2226 193.97 77.6504 212.137 77.6448 212.015 78.8916 230.04 78.881 229.924 80.8924 247.664 80.877 247.551 83.5982 264.865 83.578 264.752 86.9545 281.498 86.9287 281.383 90.9059 297.418 90.8733 297.299 95.3966 312.481 95.3551 312.354 100.37 326.541 100.316 326.402 105.768 339.453 105.697 339.297 111.53 351.068 111.46 350.936 114.503 356.298 114.446 356.201 117.564 361.19 117.494 361.084 120.681 365.682 120.597 365.567 123.845 369.757 123.741 369.632 127.044 373.395 126.916 373.259 130.267 376.578 130.108 376.433 133.499 379.29 132.988 378.952 137.712 381.348 135.299 386.105 130.299 383.568 126.59 380.443 123.097 376.983 119.679 373.089 116.338 368.779 113.075 364.07 109.893 358.98 106.785 353.504 100.88 341.588 95.3663 328.389 90.3044 314.068 85.7443 298.762 81.738 282.61 78.3385 265.75 75.5994 248.322 73.575 230.467 72.3199 212.323 71.8908 194.095 71.463 175.929 71.4686 176.05 70.2218 158.025 70.2324 158.141 68.221 140.401 68.2364 140.515 65.5151 123.2 65.5354 123.313 62.1589 106.568 62.1847 106.683 58.2075 90.6473 58.2401 90.7668 53.7168 75.5843 53.7582 75.7116 48.7435 61.5239 48.7971 61.6631 43.3455 48.6123 43.4168 48.7685 37.5829 36.9968 37.6531 37.1289 34.6099 31.7671 34.6678 31.8643 31.5495 26.8755 31.619 26.981 28.4325 22.383 28.5168 22.498 25.2688 18.3086 25.372 18.4337 22.0694 14.6706 22.197 14.8061 18.8466 11.4872 19.0052 11.6321 15.6139 8.775 15.8115 8.92632 12.3861 6.54888 12.6313 6.70014 9.17859 4.8201 9.4785 4.96001 6.00527 3.59513 6.3617 3.70708 2.87482 2.87512 3.27972 2.93933-0.213992 2.65807ZM136.588 375.294 149.113 388.065 131.381 390.423Z" transform="matrix(1.83697e-16 1 1 -1.83697e-16 385.5 705.5)"/><path d="M7.77831e-08-2.66667 7.02989-2.66667 13.8389-2.66666 20.2063-2.66666 25.9112-2.66665 30.7328-2.66664 34.4501-2.66662 35.8258-2.66661 36.8425-2.6666 37.4729-2.66658 37.6893-2.66656 37.9053-2.66656 38.5356-2.66656 39.5523-2.66656 40.9279-2.66656 44.6453-2.66656 49.4669-2.66656 55.1717-2.66656 62.0447-2.66656 62.0447 2.66677 55.1717 2.66677 49.4669 2.66677 44.6453 2.66677 40.9279 2.66677 39.5523 2.66677 38.5356 2.66677 37.9053 2.66677 37.6888 2.66677 37.4727 2.66675 36.8425 2.66674 35.8257 2.66672 34.4501 2.66671 30.7327 2.66669 25.9112 2.66668 20.2063 2.66667 13.8389 2.66667 7.02989 2.66667-7.77831e-08 2.66667ZM59.3781-7.99989 75.3781 0.000104987 59.3781 8.0001Z" fill="#FF0000" transform="matrix(1.83697e-16 1 1 -1.83697e-16 773.5 779.5)"/></g></svg>